<?xml version="1.0" encoding="utf-8"?>
<!-- Generator: Adobe Illustrator 16.0.0, SVG Export Plug-In . SVG Version: 6.00 Build 0)  -->
<!DOCTYPE svg PUBLIC "-//W3C//DTD SVG 1.1//EN" "http://www.w3.org/Graphics/SVG/1.1/DTD/svg11.dtd">
<svg version="1.1" id="Capa_1" xmlns="http://www.w3.org/2000/svg" xmlns:xlink="http://www.w3.org/1999/xlink" x="0px" y="0px"
	 width="378px" height="370px" viewBox="0 0 378 370" enable-background="new 0 0 378 370" xml:space="preserve">
<g>
	<g>
		<path fill-rule="evenodd" clip-rule="evenodd" fill="#FFFFFF" d="M371.592,161.394c-1.139-19.049-8.969-35.45-28.166-42.554
			c-19.814-7.334-36.785-1.872-49.659,15.108c-3.133,4.134-5.284,3.016-7.295-0.793c-10.563-20.013-29.609-24.326-49.64-27.063
			c-32.211-4.401-64.596-4.503-99.788-4.158c-37.998-0.778-78.657,1.974-119.343,4.104c-8.498,0.447-11.03,3.376-9.109,11.914
			c7.421,32.907,21.415,62.802,43.143,88.333c37.38,43.923,82.707,73.112,143.323,68.232c35.236-2.835,64.896-17.785,86-46.875
			c4.702-6.48,9.289-9.418,17.138-9.141c17.004,0.6,33.361-2.682,48.151-11.355C363.673,196.985,372.787,181.352,371.592,161.394z
			 M216.548,110.224c6.3,0.682,12.579,1.563,18.887,2.206c5.786,0.59,6.585,4.838,7.037,9.315c1.84,18.25,3.652,36.506,5.422,54.766
			c0.708,7.303,1.287,14.621,1.938,22.046c1.167,7.434-1.368,10.042-9.446,8.702c-21.001-3.482-21.2-3.148-23.826-23.584
			c-2.763-21.508-5.034-43.079-7.893-64.577C207.778,112.425,209.835,109.5,216.548,110.224z M188.815,108.356
			c8.334-1.25,12.757,2.345,13.686,12.987c2.026,23.21,5.311,46.324,8.527,69.415c1.157,8.305-1.506,10.519-9.19,8.007
			c-4.112-1.347-8.281-2.59-12.506-3.52c-6.261-1.381-8.548-5.545-9.13-11.456c-2.014-20.548-4.332-41.069-6.201-61.63
			C172.779,108.738,173.683,108.046,188.815,108.356z M151.798,108.044c14.021,0.041,14.457,0.543,15.817,14.271
			c1.843,18.598,3.879,37.179,5.838,55.769c1.2,11.398,0.063,11.67-11.183,8.603c-11.723-3.198-16.66-9.482-17.119-21.871
			c-0.544-14.616-3.708-29.116-5.358-43.711C138.315,108.03,138.54,108.007,151.798,108.044z M121.27,108.18
			c7.021-1.494,10.639,1.864,11.532,9.926c1.866,16.903,4.266,33.748,6.598,50.594c1.091,7.88-1.697,8.055-8.342,5.733
			c-11.381-3.971-18.924-9.396-18.54-23.185c0.287-10.229-2.075-20.526-3.214-30.8C107.964,108.354,108.142,108.177,121.27,108.18z
			 M93.367,108.652c5.404-0.656,7.979,1.679,8.561,7.133c1.418,13.26,3.154,26.484,4.786,39.719
			c0.799,6.496-2.329,6.903-7.044,4.465c-6.517-3.371-12.93-6.942-19.431-10.345c-3.269-1.71-4.788-4.473-5.352-7.952
			c-0.533-3.29-1.165-6.566-1.658-9.864C69.273,105.375,65.538,111.913,93.367,108.652z M24.127,112.665
			c10.506-0.794,21.012-1.59,31.521-2.384c4.736-0.357,7.509,1.543,8.222,6.509c0.852,5.93,2.115,11.799,3.125,17.707
			c0.844,4.916-0.428,7.493-5.726,4.54c-4.944-2.755-9.816-5.652-14.595-8.681c-7.806-4.948-15.514-10.055-23.263-15.097
			C23.649,114.396,23.887,113.531,24.127,112.665z M21.344,138.387c-2.151-5.482-3.46-11.3-6.003-19.779
			c16.106,9.9,29.629,18.188,43.124,26.519c4.906,3.025,3.974,5.378-0.896,7.328C28.127,164.237,33.489,169.326,21.344,138.387z
			 M42.071,180.976c-2.504-3.164-9.266-8.671-3.311-12.36c10.06-6.227,21.61-10.052,33.272-15.216
			c9.522,4.914,19.06,9.53,28.234,14.775c2.54,1.451,0.055,3.417-1.632,4.386c-13.574,7.772-26.6,16.937-40.98,22.718
			C47.567,199.33,46.494,186.565,42.071,180.976z M62.042,207.471c-5.136-5.243,1.593-7.232,4.854-9.148
			c12.347-7.264,24.89-14.192,37.38-21.206c2.61-1.467,5.24-2.986,10.412-2.623c5.258,2.3,12.493,4.927,19.155,8.595
			c3.562,1.961,0.191,3.817-1.691,4.849c-18.117,9.921-36.108,20.09-54.491,29.497C68.18,222.284,66.256,211.773,62.042,207.471z
			 M81.315,225.605c-0.014-1.9,1.42-2.938,2.89-3.738c19.929-10.861,39.86-21.712,59.828-32.495c1.118-0.604,2.564-0.596,4.136-0.93
			c5.515,1.989,11.211,3.885,16.775,6.112c3.208,1.287,2.89,3.261,0.2,5.01c-20.147,13.107-40.223,26.323-60.522,39.189
			C100.286,241.503,81.35,230.42,81.315,225.605z M118.658,252.667c-3.24-2.12-8.793-2.595-8.843-7.091
			c-0.044-3.819,5.114-4.715,8.081-6.691c14.991-10,30.957-18.765,44.909-30.033c14.699-11.869,28.121-7.222,44.252-0.989
			c-8.277,6.112-15.392,11.415-22.561,16.646c-11.859,8.658-24.459,16.475-35.433,26.141
			C138.749,259.735,129.295,259.625,118.658,252.667z M185.525,266.839c-5.094,4.117-12.368,1.961-18.553,1.084
			c-7.083-1.003-14.392-1.716-22.534-5.765c6.704-5.014,12.174-9.181,17.72-13.237c12.935-9.462,26.809-17.869,38.62-28.563
			c13.687-12.396,27.604-10.185,45.105-4.289C224.772,233.939,205.444,250.754,185.525,266.839z M274.368,225.768
			c-6.874,9.616-15.607,17.273-25.565,23.597c-15.353,9.744-31.884,16.07-51.516,18.553c3.512-6.111,8.384-8.605,12.248-11.988
			c13.044-11.415,26.751-22.114,39.28-34.06c8.237-7.854,16.78-4.707,25.286-3.002C279.234,219.896,275.893,223.635,274.368,225.768
			z M284.911,203.523c-1.455,5.381-3.577,9.748-10.198,7.887c-6.585-1.851-16.621,2.501-17.788-9.579
			c-1.543-15.937-3.219-31.863-4.762-47.8c-0.839-8.637-1.512-17.286-2.279-26.192c0.746-3.482-2.841-8.359,1.47-10.851
			c4.086-2.36,8.462,0.619,12.231,2.54c12.18,6.212,18.347,17.24,22.102,29.676C291.153,167.315,289.796,185.461,284.911,203.523z
			 M342.736,201.301c-13.561,7.997-28.581,10.605-44.116,11.052c-6.002,0.173-8.607-1.637-6.983-8.271
			c2.041-8.342,3.234-16.893,4.952-26.198c6.12,3.293,10.718,5.927,15.47,8.235c1.763,0.856,4.12,1.186,5.028-1.371
			c0.647-1.814-0.679-3.102-2.156-4.021c-1.131-0.702-2.326-1.298-3.48-1.966c-10.535-6.107-17.854-14.705-16.645-27.383
			c1.279-13.44,9.279-22.673,22.078-27.067c12.684-4.352,24.737-2.311,34.396,7.019
			C372.558,151.894,368.227,186.271,342.736,201.301z"/>
		<path fill-rule="evenodd" clip-rule="evenodd" fill="#FFFFFF" d="M237.322,77.527c-2.462-10.088-8.242-18.098-16.161-24.709
			c-11.871-9.911-25.832-15.222-40.719-18.219c-5.549-1.114-8.694-2.256-5.896-8.913c2.817-6.699,0.475-12.668-5.499-16.561
			c-6.049-3.94-12.691-4.434-18.818-0.073c-5.778,4.109-8.175,10.064-5.387,16.709c2.846,6.783-0.504,7.846-5.955,8.885
			c-12.225,2.332-23.848,6.48-34.313,13.387c-11.216,7.401-19.887,16.843-22.91,30.39c-2.245,10.078-0.747,12.019,9.441,12.07
			c22.706,0.112,45.413,0.034,68.12,0.029c22.706-0.008,45.413,0.08,68.12-0.048C237.561,90.418,239.759,87.517,237.322,77.527z
			 M159.317,12.799c5.441,0.797,9.713,2.998,9.394,8.621c-0.292,5.196-3.06,9.992-9.002,10.013c-5.971,0.019-8.671-4.77-8.997-9.994
			C150.354,15.731,154.738,13.726,159.317,12.799z M221.854,84.148c-20.679,0.134-41.356,0.042-62.035,0.045
			c-20.346,0.005-40.692,0.07-61.036-0.021c-11.473-0.053-13.011-2.791-7.29-12.922c5.055-8.95,12.295-15.874,21.404-20.472
			c30.271-15.273,60.966-15.401,91.537-1.136c10.431,4.864,18.937,12.457,24.099,23.143
			C232.934,81.894,231.743,84.086,221.854,84.148z"/>
	</g>
	<g>
		<g>
			<path fill-rule="evenodd" clip-rule="evenodd" fill="#FFFFFF" d="M118.058,360.407c-16.576,0.146-16.676,0.084-16.676-16.532
				c0-5.663-0.005-11.344,0.418-16.983c0.353-4.702-2.078-11.485,4.07-13.144c7.939-2.141,16.472-1.807,24.683,0.068
				c1.476,0.334,2.081,2.073,1.413,3.217c-0.771,1.308-2.175,2.861-3.515,3.094c-3.587,0.619-7.281,0.629-10.937,0.799
				c-3.909,0.183-6.316,1.757-6.188,6.067c0.115,3.83,2.418,5.183,5.828,5.381c1.331,0.076,2.668,0.068,3.994,0.193
				c2.896,0.271,6.791-0.25,6.796,3.953c0.006,4.195-3.932,3.697-6.798,4.005c-4.462,0.478-10.368-0.77-9.755,6.566
				c0.601,7.178,6.666,4.812,10.906,5.348c1.974,0.25,4.002,0.064,5.986,0.253c2.449,0.229,4.783,0.93,4.73,3.997
				c-0.055,3.172-2.61,3.559-4.966,3.676C124.726,360.53,121.387,360.407,118.058,360.407z"/>
			<path fill-rule="evenodd" clip-rule="evenodd" fill="#FFFFFF" d="M68.871,340.533c0-3.329-0.114-6.665,0.026-9.986
				c0.24-5.65-0.883-9.896-7.9-9.9c-3.123-0.003-6.548-1.34-5.963-5.114c0.512-3.324,4.188-2.692,6.715-2.719
				c8.657-0.083,17.313-0.036,25.968,0.126c2.705,0.052,5.72,0.577,5.512,4.24c-0.17,2.968-2.839,3.623-5.193,3.467
				c-8.791-0.58-9.493,4.877-9.284,11.582c0.227,7.315,0.058,14.646-0.084,21.968c-0.063,3.276-1.19,6.078-5.159,5.89
				c-3.367-0.161-4.391-2.71-4.472-5.571c-0.134-4.658-0.034-9.321-0.034-13.981C68.957,340.533,68.916,340.533,68.871,340.533z"/>
			<path fill-rule="evenodd" clip-rule="evenodd" fill="#FFFFFF" d="M304.998,312.986c4.992,0,9.992-0.107,14.981,0.047
				c2.446,0.075,4.771,0.938,4.733,3.981c-0.028,2.48-2.042,3.652-4.065,3.47c-11.297-1.025-11.13,6.353-10.895,14.188
				c0.198,6.652,0.023,13.323-0.144,19.981c-0.063,2.401-0.786,4.911-3.674,5.156c-3.506,0.298-4.603-2.36-4.674-5.195
				c-0.208-7.989-0.289-15.986-0.214-23.979c0.055-5.697-1.279-9.858-8.127-9.935c-3.071-0.034-6.705-0.843-6.245-4.762
				c0.485-4.159,4.571-2.911,7.331-3.084c3.649-0.229,7.326-0.058,10.991-0.058C304.998,312.861,304.998,312.924,304.998,312.986z"
				/>
			<path fill-rule="evenodd" clip-rule="evenodd" fill="#FFFFFF" d="M258.914,312.61c-13.908,0.12-21.83,8.924-21.73,24.147
				c0.1,15.052,8.313,23.942,22.088,23.905c13.443-0.034,21.863-9.336,21.963-24.271C281.333,321.712,272.679,312.49,258.914,312.61
				z M258.663,352.51c-7.448-0.136-12.234-6.689-12.064-16.524c0.159-9.214,4.939-15.099,12.344-15.198
				c7.788-0.109,12.532,5.922,12.517,15.916C271.443,346.374,266.362,352.653,258.663,352.51z"/>
			<path fill-rule="evenodd" clip-rule="evenodd" fill="#FFFFFF" d="M228.675,327.782c-1.203-10.227-9.026-15.605-22.052-15.159
				c-11.816,0.405-13.297,2.376-13.328,17.762c-0.005,2.324-0.003,4.65-0.003,6.974c0.014,0,0.026,0,0.039,0
				c0,4.981-0.091,9.963,0.031,14.942c0.081,3.311-0.008,7.25,4.541,7.54c3.924,0.251,4.799-3.107,4.921-6.193
				c0.225-5.746,3.671-6.662,8.585-7.19C223.479,345.162,229.865,337.915,228.675,327.782z M209.782,338.599
				c-5.952,0.167-6.974-3.78-6.77-7.738c-0.11-5.796,0.292-10.443,7.07-10.023c5.342,0.332,8.715,3.05,8.887,8.598
				C219.161,335.56,215.628,338.435,209.782,338.599z"/>
			<path fill-rule="evenodd" clip-rule="evenodd" fill="#FFFFFF" d="M182.852,352.964c-3.869-11.71-8.621-23.075-14.637-33.845
				c-4.042-7.237-6.501-7.086-10.723,0.554c-5.643,10.211-10.219,20.923-14.063,31.934c-0.916,2.626-3.465,6.088,0.178,7.994
				c4.172,2.183,7.025-0.804,8.357-4.574c1.875-5.292,5.459-7.227,10.976-6.527c6.462-1.19,9.357,2.747,11.53,8.225
				c1.227,3.099,4.133,4.629,7.373,3.201C185.345,358.379,183.627,355.303,182.852,352.964z M162.516,340.396
				c-2.64-0.068-4.546-1.196-3.708-4.235c0.666-2.42,1.204-5.117,4.261-5.95c2.99,0.925,3.679,3.569,4.204,6.021
				C168.103,340.103,165.288,340.471,162.516,340.396z"/>
		</g>
	</g>
</g>
</svg>
